<svg width="426" height="357" viewBox="0 0 426 357" fill="none" xmlns="http://www.w3.org/2000/svg">
<g clip-path="url(#clip0_22_417)">
<path d="M392.189 350.125L385.829 350.124L382.804 325.58H392.191L392.189 350.125Z" fill="#9E616A"/>
<path d="M393.811 356.293L373.304 356.292V356.033C373.304 353.915 374.145 351.884 375.642 350.386C377.139 348.888 379.169 348.047 381.286 348.047L393.812 348.047L393.811 356.293Z" fill="#2F2E41"/>
<path d="M367.807 350.125L361.447 350.124L358.421 325.58H367.808L367.807 350.125Z" fill="#9E616A"/>
<path d="M369.429 356.293L348.922 356.292V356.033C348.922 353.915 349.763 351.884 351.26 350.386C352.757 348.888 354.787 348.047 356.904 348.047L369.429 348.047L369.429 356.293Z" fill="#2F2E41"/>
<path d="M93.0327 355.344V158.205C93.0327 156.991 93.5147 155.827 94.3728 154.968C95.2309 154.11 96.3947 153.627 97.6082 153.627H118.027C119.241 153.627 120.404 154.11 121.263 154.968C122.121 155.827 122.603 156.991 122.603 158.205V355.858L93.0327 355.344Z" fill="#3F3D56"/>
<path d="M160.473 355.961V199.21C160.473 197.996 160.955 196.831 161.813 195.973C162.671 195.114 163.835 194.632 165.049 194.632H185.468C186.681 194.632 187.845 195.114 188.703 195.973C189.561 196.831 190.043 197.996 190.043 199.21V355.624L160.473 355.961Z" fill="#3F3D56"/>
<path d="M40.636 169.728C40.3355 169.727 40.0414 169.64 39.7893 169.477C39.5371 169.313 39.3378 169.08 39.2153 168.805C39.0928 168.531 39.0524 168.226 39.099 167.929C39.1455 167.632 39.2771 167.355 39.4777 167.131L107.751 90.9399L174.942 128.69L242.532 12.1655L311.388 68.8686C311.546 68.9985 311.677 69.1583 311.773 69.3388C311.869 69.5193 311.929 69.717 311.949 69.9207C311.968 70.1243 311.948 70.3299 311.888 70.5256C311.829 70.7213 311.731 70.9033 311.601 71.0613C311.471 71.2193 311.312 71.3501 311.131 71.4462C310.951 71.5424 310.753 71.602 310.549 71.6217C310.346 71.6414 310.14 71.6207 309.945 71.5609C309.749 71.5012 309.567 71.4034 309.41 71.2733L243.384 16.9008L176.094 132.909L108.403 94.8779L41.7953 169.21C41.6495 169.373 41.4708 169.503 41.271 169.593C41.0712 169.682 40.8548 169.728 40.636 169.728Z" fill="#3F3D56"/>
<path d="M40.3772 182.704C48.3994 182.704 54.9028 176.197 54.9028 168.17C54.9028 160.144 48.3994 153.637 40.3772 153.637C32.3549 153.637 25.8515 160.144 25.8515 168.17C25.8515 176.197 32.3549 182.704 40.3772 182.704Z" fill="#5EC576"/>
<path d="M107.818 107.442C115.84 107.442 122.343 100.935 122.343 92.909C122.343 84.8825 115.84 78.3757 107.818 78.3757C99.7954 78.3757 93.292 84.8825 93.292 92.909C93.292 100.935 99.7954 107.442 107.818 107.442Z" fill="#CCCCCC"/>
<path d="M175.258 145.332C183.28 145.332 189.784 138.826 189.784 130.799C189.784 122.773 183.28 116.266 175.258 116.266C167.236 116.266 160.733 122.773 160.733 130.799C160.733 138.826 167.236 145.332 175.258 145.332Z" fill="#E6E6E6"/>
<path d="M242.699 29.0665C250.721 29.0665 257.224 22.5597 257.224 14.5333C257.224 6.50676 250.721 0 242.699 0C234.676 0 228.173 6.50676 228.173 14.5333C228.173 22.5597 234.676 29.0665 242.699 29.0665Z" fill="#5EC576"/>
<path d="M372.392 137.306C380.414 137.306 386.918 130.799 386.918 122.772C386.918 114.746 380.414 108.239 372.392 108.239C364.37 108.239 357.866 114.746 357.866 122.772C357.866 130.799 364.37 137.306 372.392 137.306Z" fill="#5EC576"/>
<path d="M367.256 235.987C372.693 236.642 386.596 231.68 387.349 239.229C394.505 260.305 394.293 341.095 394.293 341.095L383.398 341.614C383.398 341.614 374.693 277.421 370.576 263.688C368.511 280.38 368.873 344.209 368.873 344.209L359.016 344.728C359.016 344.728 350.174 290.375 350.124 274.422C349.049 262.736 351.685 245.42 350.557 234.123C355.948 235.833 361.621 236.466 367.256 235.987Z" fill="#3F3D56"/>
<path d="M295.354 355.263V128.049C295.354 125.135 297.403 122.772 299.93 122.772H320.349C322.876 122.772 324.924 125.134 324.924 128.049V355.858L295.354 355.263Z" fill="#3F3D56"/>
<path d="M348.762 174.843C346.581 170.383 343.918 166.176 340.819 162.298C340.172 161.541 339.582 160.736 339.056 159.89C337.94 157.954 337.608 155.68 336.903 153.563C334.931 147.625 330.013 142.855 328.815 136.714C328.379 134.482 324.698 140.969 325.666 143.737C327.394 148.746 327.617 154.05 329.816 158.888C332.016 163.725 334.599 168.366 336.498 173.312C337.577 176.12 338.438 179.022 340.021 181.617C341.603 184.212 344.072 186.387 347.055 186.776C347.035 184.895 347.321 183.023 347.901 181.233C348.549 179.188 349.701 176.779 348.762 174.843Z" fill="#9E616A"/>
<path d="M381.398 178.207C381.265 174.537 381.837 170.875 383.084 167.421C383.561 166.097 384.121 164.753 384.075 163.347C384.007 162.039 383.385 160.84 382.819 159.656C380.869 155.582 379.499 151.263 378.15 146.955L375.557 138.832C374.711 138.212 379.65 137.996 380.703 139.455C384.147 144.24 386.757 149.737 389.486 154.964C390.182 156.209 390.775 157.51 391.26 158.852C391.926 161.026 392.242 163.294 392.194 165.568C392.194 169.819 391.633 174.054 391.052 178.269C390.684 180.911 390.202 183.787 388.204 185.536C386.129 182.878 384.044 180.283 381.398 178.207Z" fill="#9E616A"/>
<path d="M367.682 174.001C373.627 174.001 378.446 169.179 378.446 163.231C378.446 157.283 373.627 152.461 367.682 152.461C361.736 152.461 356.917 157.283 356.917 163.231C356.917 169.179 361.736 174.001 367.682 174.001Z" fill="#9E616A"/>
<path d="M358.931 152.486C358.81 152.159 358.783 151.805 358.852 151.464C358.922 151.122 359.086 150.807 359.325 150.553C359.594 150.342 359.951 150.262 360.239 150.06C360.648 149.716 360.984 149.291 361.224 148.813C361.96 147.783 363.036 147.048 364.262 146.736C365.487 146.425 366.784 146.558 367.921 147.112C369.7 148.044 370.774 149.909 372.356 151.165C373.159 151.816 374.091 152.299 374.899 152.95C376.518 154.349 377.668 156.211 378.196 158.284C378.72 160.344 379.027 162.454 379.11 164.578C379.194 165.215 379.169 165.862 379.036 166.491C378.872 167.018 378.628 167.517 378.312 167.97C376.685 170.435 374.542 172.674 371.856 173.946C369.17 175.218 365.903 175.425 363.255 174.094C362.988 173.986 362.759 173.802 362.595 173.566C362.444 173.206 362.408 172.809 362.491 172.427C362.635 170.921 362.337 169.404 361.634 168.064C361.141 167.078 360.402 166.23 360.008 165.21C359.641 164.067 359.484 162.868 359.544 161.67C359.497 158.565 359.708 155.474 358.931 152.486Z" fill="#2D293D"/>
<path d="M25.5916 355.572V245.876C25.5916 244.47 27.6403 243.329 30.1672 243.329H50.5861C53.1131 243.329 55.1617 244.471 55.1617 245.876V355.858L25.5916 355.572Z" fill="#3F3D56"/>
<path d="M425.482 357H0.518773C0.381186 357 0.249234 356.945 0.151945 356.848C0.0546559 356.751 0 356.619 0 356.481C0 356.343 0.0546559 356.211 0.151945 356.114C0.249234 356.017 0.381186 355.962 0.518773 355.962H425.481C425.619 355.962 425.751 356.017 425.848 356.114C425.945 356.211 426 356.343 426 356.481C426 356.619 425.945 356.751 425.848 356.848C425.751 356.945 425.619 357 425.481 357H425.482Z" fill="#E6E6E6"/>
<path d="M227.913 355.185V97.3395C227.913 94.0327 229.962 91.3518 232.489 91.3518H252.908C255.435 91.3518 257.483 94.0327 257.483 97.3395V355.858L227.913 355.185Z" fill="#5EC576"/>
<path d="M325.365 142.408C327.944 142.408 330.034 140.317 330.034 137.737C330.034 135.157 327.944 133.065 325.365 133.065C322.787 133.065 320.697 135.157 320.697 137.737C320.697 140.317 322.787 142.408 325.365 142.408Z" fill="#A0616A"/>
<path d="M377.243 140.332C379.821 140.332 381.912 138.24 381.912 135.66C381.912 133.08 379.821 130.989 377.243 130.989C374.664 130.989 372.574 133.08 372.574 135.66C372.574 138.24 374.664 140.332 377.243 140.332Z" fill="#A0616A"/>
<path d="M388.588 193.487C389.044 193.07 392.758 171.338 392.736 170.848C392.679 168.171 384.514 165.113 382.88 166.177C381.338 167.181 378.653 178.698 376.926 180.796L375.098 177.596H360.572L359.692 179.232C357.786 178.083 356.071 177.024 355.46 176.673C355.25 176.531 355.021 176.418 354.78 176.338C353.27 176 351.853 175.334 350.629 174.387C349.436 173.468 343.899 163.846 342.415 164.101C340.74 164.381 335.088 169.27 335.152 173.962C335.864 173.947 345.12 192.465 345.25 193.155C345.961 196.072 348.307 238.613 349.065 240.596C352.554 240.259 349.799 239.657 353.177 240.596C356.813 241.608 360.652 240.513 364.403 240.108C365.965 239.953 367.534 239.884 369.103 239.9C374.809 239.926 382.954 240.243 388.479 241.66C388.51 238.037 385.33 230.2 384.153 226.779C383.998 225.757 384.004 224.717 384.168 223.696C384.319 222.445 387.356 194.871 388.588 193.487Z" fill="#E6E6E6"/>
</g>
<defs>
<clipPath id="clip0_22_417">
<rect width="426" height="357" fill="white"/>
</clipPath>
</defs>
</svg>
