<svg width="465" height="453" viewBox="0 0 465 453" fill="none" xmlns="http://www.w3.org/2000/svg">
<g clip-path="url(#clip0_11_17)">
<path d="M143.594 332.31H85.3469C83.8785 332.31 82.6836 331.118 82.6836 329.653C82.6836 328.188 83.8785 326.996 85.3469 326.996H143.594C145.062 326.996 146.256 328.188 146.256 329.653C146.256 331.118 145.062 332.31 143.594 332.31Z" fill="#5EC576"/>
<path d="M39.5677 346.533C39.5677 347.01 39.9519 347.394 40.4303 347.394H188.51C188.988 347.394 189.372 347.01 189.372 346.533C189.372 346.056 188.988 345.672 188.51 345.672H40.4303C39.9519 345.672 39.5677 346.056 39.5677 346.533Z" fill="#3F3D56"/>
<path d="M351.992 173.134C378.013 173.134 399.107 152.088 399.107 126.127C399.107 100.165 378.013 79.1193 351.992 79.1193C325.971 79.1193 304.877 100.165 304.877 126.127C304.877 152.088 325.971 173.134 351.992 173.134Z" fill="#FF585F"/>
<path d="M0 405.933C0 406.41 0.384192 406.793 0.862614 406.793H379.444C379.922 406.793 380.307 406.41 380.307 405.933C380.307 405.455 379.922 405.072 379.444 405.072H0.862614C0.384192 405.072 0 405.455 0 405.933Z" fill="#3F3D56"/>
<path d="M5.47616 347.816L4.26512 346.492L122.462 238.884L165.046 257.93L211.03 179.251L248.811 161.082L283.816 219.29C302.715 170.475 350.11 119.404 406.903 67.589L408.3 68.7176C355.034 119.597 309.46 170.708 283.597 222.41L251.218 168.412C249.689 165.861 246.474 164.875 243.773 166.129C223.122 175.717 205.896 191.366 194.4 210.984L165.595 260.14L159.02 257.199C137.029 247.364 111.285 251.486 93.4839 267.693L5.47616 347.816Z" fill="#3F3D56"/>
<path d="M409.567 77.3857L407.773 77.5101L404.877 71.249L398.394 69.9352L398.143 68.1581L408.829 66.6429L409.567 77.3857Z" fill="#3F3D56"/>
<path d="M225.199 115.696L231.553 91.3265L256.304 90.1386L263.71 123.731L225.199 115.696Z" fill="#FFB6B6"/>
<path opacity="0.1" d="M225.199 115.696L231.553 91.3265L256.304 90.1386L263.71 123.731L225.199 115.696Z" fill="black"/>
<path d="M241.486 104.964C257.986 104.964 271.362 91.6192 271.362 75.1571C271.362 58.6951 257.986 45.3499 241.486 45.3499C224.986 45.3499 211.611 58.6951 211.611 75.1571C211.611 91.6192 224.986 104.964 241.486 104.964Z" fill="#FFB6B6"/>
<path d="M257.97 81.4664C257.97 81.4664 246.62 59.0312 233.323 60.3265C220.025 61.6218 213.02 63.197 213.02 63.197C213.02 63.197 209.073 45.7234 227.656 39.0023C227.656 39.0023 204.028 15.7634 232.16 4.36368C260.292 -7.03603 276.034 7.50285 276.034 7.50285C276.034 7.50285 296.857 28.2435 270.631 43.7453C270.631 43.7453 290.105 69.8805 266.527 91.4218C266.527 91.4218 271.8 73.9901 266.298 77.2048C260.795 80.4195 257.97 81.4664 257.97 81.4664Z" fill="#2F2E41"/>
<path d="M208.524 238.95L204.549 242.75L175.84 304.167L172.698 405.755H220.933L243.56 355.448L258.806 405.269H302.176L312.23 314.828L285.204 250.865L208.524 238.95Z" fill="#2F2E41"/>
<path d="M258.491 113.22H226.278L191.239 132.032L199.41 168.403C199.41 168.403 197.524 190.351 201.924 206.655C206.324 222.96 204.438 244.28 204.438 244.28L285.204 250.865L287.718 176.869L286.461 127.329L258.491 113.22Z" fill="#E6E6E6"/>
<path d="M196.582 132.346C196.582 132.346 177.097 132.973 173.955 145.514C170.812 158.056 168.298 222.646 168.298 222.646C168.298 222.646 170.184 260.972 191.239 242.75C212.295 224.527 210.409 169.344 210.409 169.344L196.582 132.346Z" fill="#E6E6E6"/>
<path d="M385.567 452.277H270.744C266.856 452.277 263.692 449.121 263.692 445.24V326.812C263.692 322.932 266.856 319.776 270.744 319.776H385.567C389.456 319.776 392.619 322.932 392.619 326.812V445.24C392.619 449.121 389.456 452.277 385.567 452.277Z" fill="white"/>
<path d="M385.567 453H270.744C266.456 453 262.967 449.519 262.967 445.241V326.812C262.967 322.534 266.456 319.053 270.744 319.053H385.567C389.855 319.053 393.344 322.534 393.344 326.812V445.241C393.344 449.519 389.855 453 385.567 453ZM270.744 320.499C267.255 320.499 264.417 323.331 264.417 326.812V445.241C264.417 448.722 267.255 451.554 270.744 451.554H385.567C389.056 451.554 391.895 448.722 391.895 445.241V326.812C391.895 323.331 389.056 320.499 385.567 320.499H270.744Z" fill="#3F3D56"/>
<path d="M332.687 421.165H323.223C322.071 421.165 321.134 420.443 321.134 419.555V378.904C321.134 378.016 322.071 377.294 323.223 377.294H332.687C333.839 377.294 334.776 378.016 334.776 378.904V419.555C334.776 420.443 333.839 421.165 332.687 421.165Z" fill="#5EC576"/>
<path d="M301.399 397.208C300.468 397.208 299.711 397.792 299.711 398.508V419.51C299.711 420.227 300.468 420.81 301.399 420.81H310.863C311.794 420.81 312.551 420.227 312.551 419.51V398.508C312.551 397.792 311.794 397.208 310.863 397.208H301.399Z" fill="#5EC576"/>
<path d="M354.511 421.165H345.047C343.895 421.165 342.958 420.443 342.958 419.555V352.935C342.958 352.047 343.895 351.325 345.047 351.325H354.511C355.663 351.325 356.601 352.047 356.601 352.935V419.555C356.601 420.443 355.663 421.165 354.511 421.165Z" fill="#5EC576"/>
<path d="M150.859 129.142H140.049C138.733 129.142 137.662 128.317 137.662 127.303V80.8675C137.662 79.8539 138.733 79.0293 140.049 79.0293H150.859C152.175 79.0293 153.246 79.8539 153.246 80.8675V127.303C153.246 128.317 152.175 129.142 150.859 129.142Z" fill="#5EC576"/>
<path d="M115.119 101.776C114.056 101.776 113.191 102.443 113.191 103.262V127.251C113.191 128.07 114.056 128.737 115.119 128.737H125.93C126.993 128.737 127.858 128.07 127.858 127.251V103.262C127.858 102.443 126.993 101.776 125.93 101.776H115.119Z" fill="#5EC576"/>
<path d="M175.788 129.142H164.978C163.662 129.142 162.591 128.317 162.591 127.303V51.2034C162.591 50.1897 163.662 49.3652 164.978 49.3652H175.788C177.105 49.3652 178.175 50.1897 178.175 51.2034V127.303C178.175 128.317 177.105 129.142 175.788 129.142Z" fill="#5EC576"/>
<path d="M310.553 337.007C316.152 336.472 320.007 328.923 319.165 320.142C318.877 316.63 317.75 313.238 315.878 310.249L314.799 300.311L314.964 300.261L317.677 253.14C318.307 242.183 313.96 231.417 305.585 224.303C300.603 220.071 295.288 217.928 291.87 223.275C286.199 232.148 293.545 268.725 298.369 289.521L300.239 311.743C298.969 315.032 298.506 318.577 298.891 322.081C299.732 330.859 304.953 337.542 310.553 337.007Z" fill="#FFB6B6"/>
<path d="M279.547 128.583C279.547 128.583 295.889 122.312 303.431 141.125C310.973 159.937 319.144 252.746 319.144 252.746L280.804 245.848L279.547 128.583Z" fill="#E6E6E6"/>
<path d="M55.1551 119.382H33.1508C31.6823 119.382 30.4875 118.189 30.4875 116.724C30.4875 115.259 31.6824 114.068 33.1508 114.068H55.1551C56.6236 114.068 57.8179 115.259 57.8179 116.724C57.8179 118.189 56.6236 119.382 55.1551 119.382Z" fill="#E6E6E6"/>
<path d="M55.1551 81.7184H33.1508C31.6823 81.7184 30.4875 80.5263 30.4875 79.0612C30.4875 77.5961 31.6824 76.4045 33.1508 76.4045H55.1551C56.6236 76.4045 57.8179 77.5961 57.8179 79.0612C57.8179 80.5263 56.6236 81.7184 55.1551 81.7184Z" fill="#E6E6E6"/>
<path d="M55.1551 54.5575H33.1508C31.6823 54.5575 30.4875 53.3654 30.4875 51.9003C30.4875 50.4352 31.6824 49.2436 33.1508 49.2436H55.1551C56.6236 49.2436 57.8179 50.4352 57.8179 51.9003C57.8179 53.3654 56.6236 54.5575 55.1551 54.5575Z" fill="#E6E6E6"/>
<path d="M29.6048 129.273C29.6048 129.75 29.989 130.133 30.4674 130.133H178.547C179.025 130.133 179.409 129.75 179.409 129.273C179.409 128.796 179.025 128.412 178.547 128.412H30.4674C29.989 128.412 29.6048 128.796 29.6048 129.273Z" fill="#3F3D56"/>
<path d="M315.195 352.015C315.195 352.493 315.58 352.876 316.058 352.876H464.137C464.616 352.876 465 352.493 465 352.015C465 351.538 464.616 351.155 464.137 351.155H316.058C315.58 351.155 315.195 351.538 315.195 352.015Z" fill="#3F3D56"/>
<path d="M271.704 422.165C271.704 422.642 272.089 423.025 272.567 423.025H420.646C421.125 423.025 421.509 422.642 421.509 422.165C421.509 421.687 421.125 421.304 420.646 421.304H272.567C272.089 421.304 271.704 421.687 271.704 422.165Z" fill="#3F3D56"/>
<path d="M172.128 124.922C166.529 125.457 162.673 133.006 163.515 141.787C163.804 145.299 164.931 148.692 166.803 151.68L167.882 161.618L167.716 161.668L165.004 208.789C164.373 219.746 168.72 230.512 177.095 237.626C182.077 241.859 187.392 244.001 190.81 238.654C196.481 229.781 189.135 193.204 184.312 172.409L182.441 150.187C183.712 146.897 184.174 143.352 183.789 139.848C182.948 131.07 177.727 124.387 172.128 124.922Z" fill="#FFB6B6"/>
</g>
<defs>
<clipPath id="clip0_11_17">
<rect width="465" height="453" fill="white"/>
</clipPath>
</defs>
</svg>
